<?xml version="1.0" encoding="UTF-8" standalone="no"?>
<!-- Created with Inkscape (http://www.inkscape.org/) -->

<svg
   xmlns:dc="http://purl.org/dc/elements/1.1/"
   xmlns:cc="http://creativecommons.org/ns#"
   xmlns:rdf="http://www.w3.org/1999/02/22-rdf-syntax-ns#"
   xmlns:svg="http://www.w3.org/2000/svg"
   xmlns="http://www.w3.org/2000/svg"
   xmlns:sodipodi="http://sodipodi.sourceforge.net/DTD/sodipodi-0.dtd"
   xmlns:inkscape="http://www.inkscape.org/namespaces/inkscape"
   width="210mm"
   height="297mm"
   viewBox="0 0 210 297"
   version="1.1"
   id="svg3631"
   inkscape:version="0.92.4 (5da689c313, 2019-01-14)"
   sodipodi:docname="simple heart.svg">
  <defs
     id="defs3625">
    <clipPath
       clipPathUnits="userSpaceOnUse"
       id="clipPath18">
      <path
         d="M 0,600.949 H 847.559 V 0 H 0 Z"
         id="path16"
         inkscape:connector-curvature="0" />
    </clipPath>
    <linearGradient
       id="a"
       x1="104.73"
       x2="494.51999"
       y1="335.72"
       y2="895.84003"
       gradientUnits="userSpaceOnUse">
      <stop
         stop-color="#e00"
         offset="0"
         id="stop2" />
      <stop
         stop-color="#9a0000"
         offset="1"
         id="stop4" />
    </linearGradient>
  </defs>
  <sodipodi:namedview
     id="base"
     pagecolor="#ffffff"
     bordercolor="#666666"
     borderopacity="1.0"
     inkscape:pageopacity="0.0"
     inkscape:pageshadow="2"
     inkscape:zoom="0.59847988"
     inkscape:cx="648.26943"
     inkscape:cy="530.98679"
     inkscape:document-units="mm"
     inkscape:current-layer="g2464"
     showgrid="false"
     showguides="true"
     inkscape:guide-bbox="true"
     inkscape:window-width="1920"
     inkscape:window-height="1001"
     inkscape:window-x="-9"
     inkscape:window-y="-9"
     inkscape:window-maximized="1"
     inkscape:snap-global="true">
    <sodipodi:guide
       position="72.922013,252.88982"
       orientation="0,1"
       id="guide4178"
       inkscape:locked="false" />
    <sodipodi:guide
       position="99.099147,43.94019"
       orientation="0,1"
       id="guide4180"
       inkscape:locked="false" />
  </sodipodi:namedview>
  <metadata
     id="metadata3628">
    <rdf:RDF>
      <cc:Work
         rdf:about="">
        <dc:format>image/svg+xml</dc:format>
        <dc:type
           rdf:resource="http://purl.org/dc/dcmitype/StillImage" />
        <dc:title></dc:title>
      </cc:Work>
    </rdf:RDF>
  </metadata>
  <g
     inkscape:label="Layer 1"
     inkscape:groupmode="layer"
     id="layer1">
    <g
       id="g11993"
       transform="translate(0.01320793,-14.655723)">
      <g
         id="g837"
         transform="translate(-190.17566,-55.765796)">
        <g
           id="g2464"
           transform="translate(-13.561611,18.317741)">
          <g
             transform="matrix(4.3004866,0,0,-4.3004866,309.739,153.04853)"
             id="g24">
            <path
               inkscape:connector-curvature="0"
               id="path26"
               style="fill:#ed0b91;fill-opacity:1;fill-rule:nonzero;stroke:none"
               d="m 0,0 c 0.857,1.847 1.375,3.244 2.116,4.511 2.581,4.416 7.198,6.473 11.854,5.377 4.241,-0.999 7.333,-4.923 7.733,-9.914 0.419,-5.214 -1.173,-9.921 -4.194,-14.048 -4.83,-6.599 -10.533,-12.443 -16.498,-18.021 -0.868,-0.813 -1.908,-2.363 -3.086,-0.274 -2.857,5.064 -7.865,8.066 -11.673,12.22 -2.599,2.836 -5.091,5.699 -6.567,9.322 -2.371,5.816 -1.432,11.103 2.606,15.8 4.895,5.692 11.796,5.066 15.743,-1.342 C -1.364,2.654 -0.869,1.613 0,0" />
          </g>
        </g>
      </g>
    </g>
  </g>
</svg>
